<?xml version="1.0" standalone="no"?>
<!DOCTYPE svg PUBLIC "-//W3C//DTD SVG 20010904//EN"
 "http://www.w3.org/TR/2001/REC-SVG-20010904/DTD/svg10.dtd">
<svg version="1.0" xmlns="http://www.w3.org/2000/svg"
 width="260.000000pt" height="260.000000pt" viewBox="0 0 260.000000 260.000000"
 preserveAspectRatio="xMidYMid meet">
<metadata>
Created by potrace 1.14, written by Peter Selinger 2001-2017
</metadata>
<g transform="translate(0.000000,260.000000) scale(0.100000,-0.100000)"
fill="#000000" stroke="none">
<path d="M616 1841 c-12 -18 -4 -160 10 -178 11 -17 13 -16 19 7 10 41 1 173
-12 177 -6 2 -14 -1 -17 -6z"/>
<path d="M420 1726 c0 -2 7 -20 15 -39 17 -40 32 -54 46 -40 15 15 -21 83 -43
83 -10 0 -18 -2 -18 -4z"/>
<path d="M801 1699 c-25 -40 -27 -59 -6 -59 22 0 52 67 38 81 -9 9 -17 3 -32
-22z"/>
<path d="M967 1621 c-58 -59 -69 -81 -41 -81 15 0 124 105 124 120 0 26 -33
10 -83 -39z"/>
<path d="M187 1663 c-13 -12 -7 -22 43 -73 43 -44 90 -66 90 -42 0 9 -112 122
-121 122 -3 0 -9 -3 -12 -7z"/>
<path d="M636 1603 c-2 -2 -24 -6 -49 -8 -124 -10 -251 -138 -259 -261 -3 -33
0 -39 16 -39 14 0 20 8 23 30 11 94 99 199 185 222 53 14 153 7 195 -15 91
-47 148 -131 152 -224 1 -11 9 -18 21 -18 19 0 25 11 20 35 -1 6 -3 19 -5 30
-8 62 -64 148 -125 190 -36 25 -164 68 -174 58z"/>
<path d="M1013 1430 c-34 -20 -42 -35 -21 -42 16 -6 83 30 83 45 0 20 -28 19
-62 -3z"/>
<path d="M184 1428 c-9 -14 23 -45 52 -51 33 -6 39 8 13 31 -25 24 -57 34 -65
20z"/>
<path d="M1292 1392 c-32 -5 -49 -44 -34 -77 16 -34 65 -35 87 -1 25 38 -7 86
-53 78z"/>
<path d="M1757 1389 c-54 -30 -34 -103 26 -97 56 5 64 79 11 99 -11 4 -28 3
-37 -2z"/>
<path d="M1897 1389 c-9 -6 -22 -19 -28 -30 -24 -45 52 -94 89 -57 39 39 -14
113 -61 87z"/>
<path d="M495 1300 c-3 -6 1 -7 9 -4 18 7 21 14 7 14 -6 0 -13 -4 -16 -10z"/>
<path d="M575 1300 c-3 -5 -1 -10 4 -10 6 0 11 5 11 10 0 6 -2 10 -4 10 -3 0
-8 -4 -11 -10z"/>
<path d="M650 1301 c0 -6 -3 -10 -7 -10 -21 3 -43 -2 -43 -10 0 -6 12 -6 32 0
23 6 34 5 40 -4 5 -8 8 -8 8 -1 0 6 -7 17 -15 24 -10 9 -15 9 -15 1z"/>
<path d="M694 1295 c3 -23 12 -26 13 -5 1 11 -2 20 -7 20 -4 0 -7 -7 -6 -15z"/>
<path d="M723 1295 c-3 -9 -3 -18 -1 -21 3 -3 8 4 11 16 6 23 -1 27 -10 5z"/>
<path d="M750 1303 c0 -17 14 -23 29 -14 9 6 10 11 2 15 -6 4 -11 1 -11 -6 0
-9 -3 -9 -10 2 -6 9 -10 10 -10 3z"/>
<path d="M520 1283 c-13 -15 -12 -16 3 -10 9 3 29 2 43 -3 17 -7 23 -7 19 0
-3 6 -13 10 -21 10 -8 0 -14 5 -14 10 0 15 -13 12 -30 -7z"/>
<path d="M343 1252 c-24 -2 -43 -8 -44 -15 -4 -50 -1 -146 5 -165 7 -21 9 -21
48 19 35 35 41 48 43 88 3 69 -3 77 -52 73z"/>
<path d="M1273 1252 c-18 -3 -21 -9 -18 -32 4 -34 -12 -58 -103 -148 -38 -37
-62 -68 -59 -76 3 -8 22 -19 42 -26 36 -12 38 -11 83 31 123 119 130 127 133
172 2 24 3 51 1 59 -3 16 -40 26 -79 20z"/>
<path d="M1743 1252 c-33 -3 -37 -9 -34 -49 2 -14 -18 -42 -56 -82 -57 -60
-77 -69 -110 -48 -14 9 -73 -39 -73 -60 0 -7 7 -16 15 -19 22 -9 18 -30 -7
-51 -13 -10 -24 -23 -25 -28 -11 -69 -10 -81 4 -106 30 -51 90 -71 146 -50 36
14 78 74 84 121 3 22 11 40 17 40 8 0 8 2 0 8 -6 4 -13 13 -15 21 -4 9 -24 -4
-64 -43 -54 -52 -85 -69 -85 -47 0 5 59 68 132 140 l131 132 2 55 c2 62 -8 72
-62 66z"/>
<path d="M479 1176 c-1 -42 -3 -80 -4 -86 -1 -5 -3 -14 -4 -18 -2 -14 -45 -12
-61 3 -14 13 -20 11 -51 -21 l-34 -35 23 -19 c20 -16 21 -22 10 -39 -7 -12
-16 -21 -19 -21 -23 0 -34 -92 -15 -129 52 -100 192 -69 241 53 12 31 15 100
3 111 -3 3 -34 -24 -68 -60 -60 -62 -90 -80 -90 -52 0 6 65 76 144 154 115
113 148 140 165 136 20 -5 30 -23 13 -23 -4 0 -13 -9 -19 -19 -12 -19 -10 -19
37 -17 28 2 50 -1 50 -5 0 -26 -95 -40 -118 -17 -9 9 -20 5 -46 -21 -19 -18
-32 -39 -30 -45 7 -17 59 -37 106 -41 77 -7 110 9 204 100 93 89 124 103 145
64 6 -12 9 -37 7 -55 -2 -19 -3 -34 -1 -34 10 0 93 89 93 99 0 23 -29 68 -56
86 -65 42 -139 28 -206 -40 l-44 -45 -17 33 c-43 79 -162 101 -219 42 -30 -32
-45 -31 -44 3 1 25 -2 27 -46 30 l-48 3 -1 -75z"/>
<path d="M1508 1234 c-12 -6 -70 -60 -130 -120 -99 -99 -106 -109 -92 -125 8
-9 29 -19 46 -23 28 -5 37 1 125 89 93 92 130 114 149 84 6 -10 74 46 74 62 0
4 -15 17 -34 29 -38 23 -99 25 -138 4z"/>
<path d="M1890 1166 c0 -60 -4 -87 -14 -95 -16 -14 -66 -4 -66 12 0 6 -16 -4
-35 -23 -19 -19 -35 -37 -35 -41 0 -31 140 -74 156 -48 3 5 9 7 13 4 5 -2 48
36 97 85 69 69 95 90 117 90 21 0 30 -7 38 -27 5 -14 9 -33 8 -42 -1 -9 -1
-22 0 -29 1 -16 91 71 91 89 0 6 -9 26 -20 44 -44 71 -148 85 -212 29 -42 -36
-45 -36 -41 1 l3 35 -50 0 -50 0 0 -84z"/>
<path d="M2267 1092 c-42 -43 -77 -84 -77 -90 0 -13 35 -34 64 -39 12 -2 44
22 93 69 l74 73 -32 33 c-17 17 -34 32 -38 32 -3 0 -41 -35 -84 -78z"/>
<path d="M2026 1030 c-26 -28 -45 -54 -41 -58 3 -4 26 -8 50 -9 l43 -2 4 45
c6 78 -2 81 -56 24z"/>
<path d="M920 1024 c-23 -25 -39 -48 -36 -51 9 -9 96 -14 97 -5 7 51 4 102 -6
102 -7 0 -31 -21 -55 -46z"/>
<path d="M706 932 c-3 -5 1 -9 9 -9 8 0 12 4 9 9 -3 4 -7 8 -9 8 -2 0 -6 -4
-9 -8z"/>
<path d="M766 932 c-3 -5 1 -9 9 -9 8 0 12 4 9 9 -3 4 -7 8 -9 8 -2 0 -6 -4
-9 -8z"/>
<path d="M917 929 c7 -7 15 -10 18 -7 3 3 -2 9 -12 12 -14 6 -15 5 -6 -5z"/>
<path d="M1157 929 c7 -7 15 -10 18 -7 3 3 -2 9 -12 12 -14 6 -15 5 -6 -5z"/>
<path d="M1397 929 c7 -7 15 -10 18 -7 3 3 -2 9 -12 12 -14 6 -15 5 -6 -5z"/>
<path d="M1746 932 c-3 -5 1 -9 9 -9 8 0 12 4 9 9 -3 4 -7 8 -9 8 -2 0 -6 -4
-9 -8z"/>
<path d="M1806 932 c-3 -5 1 -9 9 -9 8 0 12 4 9 9 -3 4 -7 8 -9 8 -2 0 -6 -4
-9 -8z"/>
<path d="M1867 929 c7 -7 15 -10 18 -7 3 3 -2 9 -12 12 -14 6 -15 5 -6 -5z"/>
<path d="M2337 929 c7 -7 15 -10 18 -7 3 3 -2 9 -12 12 -14 6 -15 5 -6 -5z"/>
<path d="M2390 930 c0 -5 5 -10 11 -10 5 0 7 5 4 10 -3 6 -8 10 -11 10 -2 0
-4 -4 -4 -10z"/>
<path d="M1303 883 c4 -6 0 -13 -8 -17 -8 -3 -14 -16 -14 -28 2 -22 2 -22 6
-1 2 12 11 24 18 27 17 6 35 -22 27 -44 -2 -8 -2 -12 2 -9 17 16 12 45 -12 63
-14 11 -22 15 -19 9z"/>
<path d="M2336 873 c10 -7 22 -13 26 -13 5 0 3 6 -4 13 -7 8 -19 14 -26 14
-11 0 -10 -4 4 -14z"/>
<path d="M1114 872 c-13 -9 -26 -54 -13 -46 5 3 9 12 9 20 0 8 9 14 20 14 12
0 17 -5 14 -14 -3 -8 -1 -16 4 -20 5 -3 8 4 7 16 -2 23 -26 40 -41 30z"/>
<path d="M2040 870 c-9 -6 -10 -10 -3 -10 6 0 15 5 18 10 8 12 4 12 -15 0z"/>
<path d="M824 855 c-9 -23 3 -45 25 -45 13 0 19 6 18 18 0 10 -7 19 -14 19 -9
0 -10 -4 -2 -14 9 -10 8 -13 -5 -13 -19 0 -22 36 -3 43 9 4 9 6 -1 6 -7 1 -15
-6 -18 -14z"/>
<path d="M925 861 c-3 -6 5 -15 17 -21 21 -10 22 -10 5 3 -14 11 -15 16 -5 20
9 4 9 6 1 6 -6 1 -14 -3 -18 -8z"/>
<path d="M970 851 c8 -16 6 -22 -7 -30 -10 -6 -13 -10 -8 -11 26 0 37 17 26
39 -7 11 -14 21 -17 21 -2 0 0 -9 6 -19z"/>
<path d="M1039 857 c8 -10 11 -21 7 -24 -4 -4 -11 -1 -15 6 -6 9 -11 10 -15 2
-7 -11 -6 -12 31 -16 19 -2 21 1 13 16 -6 10 -16 21 -23 25 -8 5 -7 2 2 -9z"/>
<path d="M1757 856 c-3 -8 0 -22 7 -32 11 -15 12 -13 8 14 -5 36 -7 38 -15 18z"/>
<path d="M1949 855 c17 -33 31 -51 31 -40 0 6 -10 21 -21 35 -13 17 -17 18
-10 5z"/>
<path d="M1986 854 c-5 -14 -4 -15 9 -4 17 14 19 20 6 20 -5 0 -12 -7 -15 -16z"/>
<path d="M2100 850 c0 -11 4 -20 10 -20 5 0 7 7 4 15 -10 25 13 17 34 -12 l19
-27 8 23 c4 13 2 28 -3 33 -8 8 -9 4 -5 -13 l6 -24 -25 23 c-30 27 -48 28 -48
2z"/>
<path d="M2260 851 c0 -11 3 -22 8 -24 4 -3 7 6 7 19 0 13 -3 24 -7 24 -5 0
-8 -9 -8 -19z"/>
<path d="M2297 855 c-4 -8 -3 -16 1 -19 4 -3 9 4 9 15 2 23 -3 25 -10 4z"/>
<path d="M1251 844 c0 -11 3 -14 6 -6 3 7 2 16 -1 19 -3 4 -6 -2 -5 -13z"/>
<path d="M2390 849 c0 -5 5 -7 10 -4 6 3 10 8 10 11 0 2 -4 4 -10 4 -5 0 -10
-5 -10 -11z"/>
<path d="M783 835 c0 -8 4 -12 9 -9 5 3 6 10 3 15 -9 13 -12 11 -12 -6z"/>
<path d="M1800 835 c-11 -13 -10 -14 4 -9 9 3 16 10 16 15 0 13 -6 11 -20 -6z"/>
<path d="M1850 830 c6 -11 12 -20 14 -20 2 0 2 9 -1 20 -3 11 -9 20 -15 20 -5
0 -4 -9 2 -20z"/>
<path d="M2030 830 c0 -11 2 -20 4 -20 2 0 6 9 9 20 3 11 1 20 -4 20 -5 0 -9
-9 -9 -20z"/>
<path d="M2057 831 c-4 -17 -3 -21 5 -13 5 5 8 16 6 23 -3 8 -7 3 -11 -10z"/>
<path d="M2201 838 c-1 -22 18 -33 32 -19 9 9 8 11 -5 6 -11 -4 -18 0 -21 12
-4 15 -5 16 -6 1z"/>
<path d="M2360 836 c0 -9 -7 -13 -20 -11 -11 2 -22 0 -24 -4 -3 -4 7 -7 22 -6
17 0 28 7 30 18 2 9 1 17 -2 17 -3 0 -6 -6 -6 -14z"/>
<path d="M1180 831 c0 -10 19 -25 25 -20 1 2 -3 10 -11 17 -8 7 -14 8 -14 3z"/>
<path d="M1889 823 c-12 -16 -12 -17 2 -6 9 7 19 10 22 6 4 -3 7 -1 7 5 0 17
-16 15 -31 -5z"/>
</g>
</svg>
